<?xml version="1.0" encoding="utf-8"?>
<svg version="1.1" id="g1" xmlns="http://www.w3.org/2000/svg" xmlns:xlink="http://www.w3.org/1999/xlink" x="0px" y="0px"
	 viewBox="0 0 800 562.3" style="enable-background:new 0 0 800 562.3;" xml:space="preserve">
<style type="text/css">
	.st0{fill:#F9F4F7;}
	.st1{fill:#545253;}
	.st2{fill:#332F32;}
	.st3{fill:#F7F7F7;}
	.st4{fill:#FFFFFF;}
	.st5{fill:#C1B7C4;}
	.st6{fill:#F1F3F4;}
	.st7{fill:none;stroke:#686868;stroke-width:2.78;stroke-linecap:round;stroke-miterlimit:10;}
	.st8{fill:none;stroke:#332F32;stroke-width:2.68;stroke-miterlimit:10;}
	.st9{opacity:0.6;fill:url(#SVGID_1_);fill-opacity:0.5;enable-background:new    ;}
	.st10{opacity:0.33;fill:none;stroke:#D5D5E0;stroke-width:1.58;stroke-miterlimit:10;enable-background:new    ;}
	.st11{opacity:0.2;fill:#7A7A9E;enable-background:new    ;}
	.st12{fill:#20F5A8;}
	.st13{fill:#36E1FA;}
	.st14{fill:#FF80BA;}
	.st15{fill:none;stroke:#9C9CAF;stroke-width:2.24;stroke-linecap:round;stroke-linejoin:round;}
	.st16{fill:none;stroke:#9C9CAF;stroke-width:1.96;stroke-linecap:round;stroke-linejoin:round;}
	.st17{fill:#D4237A;}
	.st18{fill:#FFFFFF;stroke:#FFFFFF;stroke-width:0.5;stroke-miterlimit:10;}
	.st19{fill:#FFD60D;}
	.st20{fill:#595855;}
	.st21{opacity:0.4;fill:#76768C;enable-background:new    ;}
	.st22{font-family:'SourceHanSansCN-Regular-GBpc-EUC-H';}
	.st23{font-size:20.96px;}
	.st24{fill:none;stroke:#D4237A;stroke-width:2.01;stroke-linecap:round;stroke-linejoin:round;}
	.st25{fill:#D4237A;stroke:#D4237A;stroke-width:0.4;stroke-miterlimit:10;}
	.st26{font-size:8.43px;}
	.st27{fill:none;stroke:#545253;stroke-width:0.93;stroke-miterlimit:10;}
	.st28{fill:none;}
	.st29{clip-path:url(#SVGID_3_);}
	.st30{fill:#202124;}
	.st31{opacity:0.6;fill:url(#SVGID_4_);fill-opacity:0.5;enable-background:new    ;}
	.st32{fill:#393B3F;}
	.st33{fill:none;stroke:#9C9CAF;stroke-width:2.25;stroke-linecap:round;stroke-linejoin:round;}
	.st34{fill:#8E8E8E;}
</style>
<path class="st0" d="M799.6,562.3H0.2V15.4C0.2,6.9,7.1,0,15.6,0h768.6c8.5,0,15.4,6.9,15.4,15.4V562.3z"/>
<path class="st1" d="M11.7,0h776.7c6.4,0,11.7,5.2,11.7,11.7v33.8l0,0H0l0,0V11.7C0,5.2,5.2,0,11.7,0z"/>
<path class="st2" d="M231.6,48.1H120.5l8-28.2c1-3.2,3.5-5.3,6.3-5.3h82.6c2.8,0,5.3,2.1,6.3,5.3L231.6,48.1z"/>
<path class="st3" d="M0,46.4h800v57.6H0V46.4z"/>
<ellipse class="st4" cx="29.7" cy="24" rx="7" ry="6.6"/>
<ellipse class="st4" cx="58.8" cy="24" rx="7" ry="6.6"/>
<ellipse class="st4" cx="88.1" cy="24" rx="7.1" ry="6.6"/>
<path class="st5" d="M140.6,63.2H684c7.9,0,14.3,6,14.3,13.5v0.2c0,7.4-6.4,13.5-14.3,13.5H140.6c-7.9,0-14.3-6-14.3-13.5v-0.2
	C126.3,69.3,132.7,63.2,140.6,63.2z"/>
<path class="st6" d="M140.6,65.8H684c7.9,0,14.3,6,14.3,13.5v0.2c0,7.4-6.4,13.5-14.3,13.5H140.6c-7.9,0-14.3-6-14.3-13.5v-0.2
	C126.3,71.8,132.7,65.8,140.6,65.8z"/>
<line class="st7" x1="763.5" y1="70.2" x2="779.3" y2="70.2"/>
<line class="st7" x1="763.5" y1="76.8" x2="779.3" y2="76.8"/>
<line class="st7" x1="763.5" y1="83.4" x2="779.3" y2="83.4"/>
<path class="st3" d="M227.1,48.1H116.1l8-28.2c1-3.2,3.5-5.3,6.3-5.3h82.6c2.8,0,5.3,2.1,6.3,5.3L227.1,48.1z"/>
<path class="st8" d="M228.8,45.5H800 M0,46.8h116.1"/>
<linearGradient id="SVGID_1_" gradientUnits="userSpaceOnUse" x1="400" y1="559.55" x2="400" y2="539.25" gradientTransform="matrix(1 0 0 1 0 -430)">
	<stop  offset="0" style="stop-color:#FFFFFF;stop-opacity:0"/>
	<stop  offset="1" style="stop-color:#776BB2;stop-opacity:0.25"/>
</linearGradient>
<path class="st9" d="M0,109.2h800v20.3H0V109.2z"/>
<path class="st10" d="M800,109.2H0"/>
<path class="st11" d="M96.9,298h606c11.7,0,14.5,8.9,14.5,19.9v19.7c0,11-2.8,19.9-14.5,19.9h-606c-11.7,0-14.5-8.9-14.5-19.9V318
	C82.5,307,85.3,298,96.9,298z"/>
<path class="st4" d="M96.4,296.6h606c11.7,0,14.5,8.9,14.5,19.9v19.7c0,11-2.8,19.9-14.5,19.9h-606c-11.7,0-14.5-8.9-14.5-19.9
	v-19.7C81.9,305.5,84.7,296.6,96.4,296.6z"/>
<path class="st11" d="M96.9,213.4h606c11.7,0,14.5,8.9,14.5,19.9v19.7c0,11-2.8,19.9-14.5,19.9h-606c-11.7,0-14.5-8.9-14.5-19.9
	v-19.7C82.5,222.3,85.3,213.4,96.9,213.4z"/>
<path class="st4" d="M96.4,211.3h606c11.7,0,14.5,8.9,14.5,19.9v19.7c0,11-2.8,19.9-14.5,19.9h-606c-11.7,0-14.5-8.9-14.5-19.9
	v-19.7C81.9,220.2,84.7,211.3,96.4,211.3z"/>
<ellipse class="st12" cx="122.7" cy="326.1" rx="17.1" ry="16.1"/>
<path class="st11" d="M96.9,383.7h606c11.7,0,14.5,8.9,14.5,19.9v19.7c0,11-2.8,19.9-14.5,19.9h-606c-11.7,0-14.5-8.9-14.5-19.9
	v-19.7C82.5,392.6,85.3,383.7,96.9,383.7z"/>
<path class="st4" d="M96.9,382.2h606c11.7,0,14.5,8.9,14.5,19.9v19.7c0,11-2.8,19.9-14.5,19.9h-606c-11.7,0-14.5-8.9-14.5-19.9
	v-19.7C82.5,391.1,85.3,382.2,96.9,382.2z"/>
<ellipse class="st13" cx="121.7" cy="411.8" rx="17.1" ry="16.1"/>
<path class="st11" d="M96.9,470.2h606c11.7,0,14.5,8.9,14.5,19.9v19.7c0,11-2.8,19.9-14.5,19.9h-606c-11.7,0-14.5-8.9-14.5-19.9
	v-19.7C82.5,479.1,85.3,470.2,96.9,470.2z"/>
<path class="st4" d="M96.9,469h606c11.7,0,14.5,8.9,14.5,19.9v19.7c0,11-2.8,19.9-14.5,19.9h-606c-11.7,0-14.5-8.9-14.5-19.9v-19.7
	C82.5,477.9,85.3,469,96.9,469z"/>
<ellipse class="st14" cx="121.7" cy="498.3" rx="17.1" ry="16.1"/>
<polyline class="st15" points="21.9,73.5 16.2,80.1 21.9,86.4 "/>
<line class="st15" x1="31.1" y1="79.9" x2="16.2" y2="80.1"/>
<polyline class="st15" points="56.2,86.4 61.9,79.7 56.2,73.5 "/>
<line class="st15" x1="47" y1="79.9" x2="61.9" y2="79.7"/>
<path class="st16" d="M94.5,86.3c-2.9,2.1-7,1.5-9.1-1.5c-2.1-2.9-1.5-7,1.5-9.1c2.6-1.9,6.2-1.6,8.5,0.7"/>
<polyline class="st16" points="90.8,77.2 96.3,77.7 96.3,72.3 "/>
<ellipse class="st17" cx="730.2" cy="75.3" rx="15.4" ry="15.4"/>
<path class="st18" d="M730.2,74.9c-0.2,0-0.4,0-0.6-0.1l-6.1-2.6c-0.5-0.2-0.8-0.7-0.6-1.3c0.1-0.3,0.3-0.5,0.6-0.6l6.2-2.6
	c0.2-0.1,0.3-0.1,0.5-0.1c0.2,0,0.4,0,0.5,0.1l6.2,2.6c0.4,0.2,0.7,0.6,0.6,1c0,0.4-0.2,0.8-0.6,1l-6.1,2.6
	C730.6,75,730.4,75,730.2,74.9L730.2,74.9z M730.2,68.4c-0.1,0-0.2,0-0.2,0l-6.2,2.6c-0.1,0-0.2,0.1-0.2,0.2c0,0.1,0.1,0.2,0.2,0.2
	c3.8,1.6,6,2.5,6.1,2.6c0.1,0,0.2,0.1,0.3,0.1c0.1,0,0.2,0,0.3-0.1l6.1-2.6c0.1,0,0.2-0.1,0.2-0.2c0-0.1-0.1-0.2-0.2-0.2l-6.2-2.6
	C730.4,68.4,730.3,68.4,730.2,68.4L730.2,68.4z"/>
<path class="st18" d="M737.8,74.2c-0.1-0.2-0.3-0.3-0.5-0.2l-6.7,2.8c-0.2,0.1-0.5,0.1-0.8,0l-6.6-2.8c-0.2-0.1-0.4,0-0.5,0.2
	c-0.1,0.2,0,0.4,0.2,0.5l0,0l6.6,2.8c0.5,0.2,1.1,0.2,1.6,0l6.5-2.8C737.7,74.7,737.8,74.4,737.8,74.2
	C737.8,74.2,737.8,74.2,737.8,74.2L737.8,74.2z"/>
<path class="st18" d="M730.6,79.4c-0.2,0.1-0.5,0.1-0.8,0c-0.2-0.1-5.2-2.2-6.7-2.8c-0.2-0.1-0.4,0-0.5,0.2c0,0,0,0,0,0
	c-0.1,0.2,0,0.4,0.2,0.5l6.6,2.8c0.5,0.2,1.1,0.2,1.6,0l6.5-2.8c0.2-0.1,0.3-0.3,0.2-0.5c0,0,0,0,0,0l0,0c-0.1-0.2-0.3-0.3-0.5-0.2
	L730.6,79.4L730.6,79.4z"/>
<path class="st18" d="M730.6,82c-0.2,0.1-0.5,0.1-0.8,0c-0.2-0.1-5.2-2.2-6.7-2.8c-0.2-0.1-0.4,0-0.5,0.2c-0.1,0.2,0,0.4,0.2,0.5
	c0,0,0,0,0,0l6.6,2.8c0.5,0.2,1.1,0.2,1.6,0c0.4-0.2,5.2-2.2,6.5-2.8c0.2-0.1,0.3-0.3,0.2-0.5c0,0,0,0,0,0l0,0
	c-0.1-0.2-0.3-0.3-0.5-0.2L730.6,82z"/>
<path class="st17" d="M116.1,157c-0.6,0-1.2-0.1-1.7-0.3c-0.6-0.3-10.1-4.3-18-7.6c-1.5-0.6-2.3-2.4-1.7-3.9
	c0.3-0.8,0.9-1.3,1.7-1.7l18.1-7.6c0.5-0.2,1-0.3,1.6-0.3c0.5,0,1.1,0.1,1.6,0.3c0.3,0.1,11.7,5,18,7.6c1.1,0.5,1.8,1.6,1.8,2.8
	c0,1.2-0.7,2.3-1.8,2.8c-5.1,2.2-17.1,7.3-17.9,7.6C117.2,156.9,116.6,157,116.1,157L116.1,157z M116.1,137.9c-0.2,0-0.5,0-0.7,0.1
	l-18.1,7.6c-0.4,0.2-0.6,0.6-0.4,1c0.1,0.2,0.2,0.3,0.4,0.4c11.1,4.7,17.4,7.4,17.9,7.6c0.3,0.1,0.6,0.2,0.9,0.2
	c0.3,0,0.5-0.1,0.8-0.2c0.8-0.3,12.8-5.4,17.9-7.6c0.3-0.1,0.5-0.4,0.5-0.7c0-0.3-0.2-0.6-0.5-0.7c-5.9-2.5-17.6-7.5-18-7.6
	C116.6,137.9,116.3,137.9,116.1,137.9L116.1,137.9z"/>
<path class="st17" d="M138.2,155c-0.3-0.6-0.9-0.9-1.5-0.6c-4.1,1.7-18.7,7.9-19.5,8.2c-0.7,0.3-1.5,0.3-2.2,0
	c-0.7-0.3-15.3-6.5-19.5-8.2c-0.6-0.3-1.3,0-1.5,0.6c-0.3,0.6,0,1.3,0.6,1.5l0,0l19.3,8.1c1.5,0.6,3.2,0.6,4.6-0.1
	c1.1-0.4,15.1-6.3,19.1-8.1C138.1,156.3,138.4,155.7,138.2,155C138.2,155,138.2,155,138.2,155L138.2,155z"/>
<path class="st17" d="M117.2,170.2c-0.7,0.3-1.5,0.3-2.2,0c-0.7-0.3-15.3-6.5-19.5-8.2c-0.6-0.3-1.3,0-1.5,0.6
	c-0.3,0.6,0,1.3,0.6,1.5l0,0l19.3,8.1c1.5,0.6,3.2,0.6,4.6-0.1c1.1-0.4,15.1-6.3,19.1-8.1c0.6-0.2,0.9-0.9,0.6-1.5c0,0,0,0,0,0l0,0
	c-0.3-0.6-0.9-0.9-1.5-0.6L117.2,170.2L117.2,170.2z"/>
<path class="st17" d="M117.2,177.8c-0.7,0.3-1.5,0.3-2.2,0c-0.7-0.3-15.3-6.5-19.5-8.2c-0.6-0.3-1.3,0-1.5,0.6
	c-0.3,0.6,0,1.3,0.6,1.5l0,0l19.3,8.1c1.5,0.6,3.2,0.6,4.6-0.1c1.1-0.4,15.1-6.3,19.1-8.1c0.6-0.2,0.9-0.9,0.6-1.5c0,0,0,0,0,0l0,0
	c-0.3-0.6-0.9-0.9-1.5-0.6C132.5,171.3,118,177.5,117.2,177.8L117.2,177.8z"/>
<polygon class="st19" points="123,225.5 128.4,236.4 140.4,238.1 131.7,246.6 133.7,258.6 123,252.9 112.2,258.6 114.3,246.6 
	105.6,238.1 117.6,236.4 "/>
<path class="st20" d="M179.6,237.4H177c0.1-4-3-7.4-7-7.5c-4-0.1-7.4,3-7.5,7c0,0.2,0,0.4,0,0.5h-2.6c0-5,4.4-10,9.9-10
	S179.6,232.4,179.6,237.4 M182.9,241.6c0-1.4-1.2-2.6-2.6-2.6h-20.9c-1.4,0-2.6,1.2-2.6,2.6V254c0,1.4,1.2,2.6,2.6,2.6h20.9
	c1.4,0,2.6-1.2,2.6-2.6L182.9,241.6L182.9,241.6z M171.9,251.3c0,1.1-0.9,2-2,1.9h-0.3c-1.1,0-1.9-0.9-1.9-1.9V246
	c0-1.1,0.9-2,1.9-2h0.3c1.1,0,2,0.9,2,2V251.3z"/>
<path class="st21" d="M222.2,228.6h125.1c7.4,0,13.4,6,13.4,13.4l0,0c0,7.4-6,13.4-13.4,13.4H222.2c-7.4,0-13.4-6-13.4-13.4l0,0
	C208.8,234.6,214.8,228.6,222.2,228.6z"/>
<path class="st11" d="M403.8,227.6h261.7c7.4,0,13.4,6,13.4,13.4l0,0c0,7.4-6,13.4-13.4,13.4H403.8c-7.4,0-13.4-6-13.4-13.4l0,0
	C390.4,233.6,396.4,227.6,403.8,227.6z"/>
<path class="st11" d="M176.2,312.7h495.4c7.4,0,13.4,6,13.4,13.4v0c0,7.4-6,13.4-13.4,13.4H176.2c-7.4,0-13.4-6-13.4-13.4v0
	C162.8,318.7,168.8,312.7,176.2,312.7z"/>
<path class="st11" d="M176.2,398.4h495.4c7.4,0,13.4,6,13.4,13.4v0c0,7.4-6,13.4-13.4,13.4H176.2c-7.4,0-13.4-6-13.4-13.4v0
	C162.8,404.4,168.8,398.4,176.2,398.4z"/>
<path class="st11" d="M176.2,484.9h495.4c7.4,0,13.4,6,13.4,13.4v0c0,7.4-6,13.4-13.4,13.4H176.2c-7.4,0-13.4-6-13.4-13.4v0
	C162.8,490.9,168.8,484.9,176.2,484.9z"/>
<path class="st11" d="M266.1,148.2h149.1c7.4,0,13.4,6,13.4,13.4l0,0c0,7.4-6,13.4-13.4,13.4H266.1c-7.4,0-13.4-6-13.4-13.4l0,0
	C252.7,154.2,258.7,148.2,266.1,148.2z"/>
<path class="st4" d="M265.5,150.1h149.1c7.4,0,13.4,6,13.4,13.4l0,0c0,7.4-6,13.4-13.4,13.4H265.5c-7.4,0-13.4-6-13.4-13.4l0,0
	C252.1,156.1,258.1,150.1,265.5,150.1z"/>
<text transform="matrix(1 0 0 1 153.13 169.45)" class="st22 st23">K</text>
<text transform="matrix(1 0 0 1 166.5 169.45)" class="st22 st23">e</text>
<text transform="matrix(1 0 0 1 178.11 169.45)" class="st22 st23">p</text>
<text transform="matrix(1 0 0 1 190.7 169.45)" class="st22 st23">t</text>
<text transform="matrix(1 0 0 1 198.1 169.45)" class="st22 st23">ab</text>
<ellipse transform="matrix(0.2256 -0.9742 0.9742 0.2256 158.8396 522.0618)" class="st24" cx="407.8" cy="161.1" rx="5.4" ry="5.8"/>
<path class="st24" d="M412.1,166.1l5.3,5.1"/>
<path class="st25" d="M142.4,31.8c-0.2,0-0.4,0-0.6-0.1l-6.3-2.7c-0.4-0.2-0.7-0.6-0.6-1c0-0.4,0.2-0.8,0.6-1l6.4-2.7
	c0.2-0.1,0.4-0.1,0.6-0.1c0.2,0,0.4,0,0.6,0.1l6.4,2.7c0.4,0.2,0.7,0.6,0.6,1c0,0.4-0.2,0.8-0.6,1l-6.4,2.7
	C142.8,31.8,142.6,31.8,142.4,31.8L142.4,31.8z M142.4,25.1c-0.1,0-0.2,0-0.2,0l-6.4,2.7c-0.1,0-0.2,0.2-0.2,0.3
	c0,0.1,0.1,0.1,0.2,0.2l6.3,2.7c0.1,0,0.2,0.1,0.3,0.1c0.1,0,0.2,0,0.3-0.1l6.3-2.7c0.1,0,0.2-0.1,0.2-0.2c0-0.1-0.1-0.2-0.2-0.3
	l-6.3-2.7C142.6,25.1,142.5,25.1,142.4,25.1L142.4,25.1z"/>
<path class="st25" d="M150.2,31.1c-0.1-0.2-0.3-0.3-0.5-0.2l-6.9,2.9c-0.2,0.1-0.5,0.1-0.8,0l-6.9-2.9c-0.2-0.1-0.5,0-0.6,0.2
	c-0.1,0.2,0,0.5,0.2,0.5l6.8,2.9c0.5,0.2,1.1,0.2,1.6,0c0.4-0.2,5.3-2.2,6.7-2.8C150.2,31.6,150.3,31.4,150.2,31.1
	C150.2,31.2,150.2,31.2,150.2,31.1L150.2,31.1z"/>
<path class="st25" d="M142.8,36.5c-0.2,0.1-0.5,0.1-0.8,0l-6.9-2.9c-0.2-0.1-0.4,0-0.5,0.2c0,0,0,0,0,0c-0.1,0.2,0,0.4,0.2,0.5
	l6.8,2.9c0.5,0.2,1.1,0.2,1.6,0c0.4-0.2,5.3-2.2,6.7-2.8c0.2-0.1,0.3-0.3,0.2-0.5l0,0c-0.1-0.2-0.3-0.3-0.5-0.2c0,0,0,0,0,0
	L142.8,36.5L142.8,36.5z"/>
<path class="st25" d="M142.8,39.1c-0.2,0.1-0.5,0.1-0.8,0l-6.9-2.9c-0.2-0.1-0.4,0-0.5,0.2c0,0,0,0,0,0c-0.1,0.2,0,0.4,0.2,0.5
	l6.8,2.9c0.5,0.2,1.1,0.2,1.6,0L150,37c0.2-0.1,0.3-0.3,0.2-0.5c0,0,0,0,0,0l0,0c-0.1-0.2-0.3-0.3-0.5-0.2c0,0,0,0,0,0L142.8,39.1
	L142.8,39.1z"/>
<text transform="matrix(1 0 0 1 155.47 36.58)" class="st22 st26">K</text>
<text transform="matrix(1 0 0 1 160.85 36.58)" class="st22 st26">e</text>
<text transform="matrix(1 0 0 1 165.52 36.58)" class="st22 st26">p</text>
<text transform="matrix(1 0 0 1 170.58 36.58)" class="st22 st26">t</text>
<text transform="matrix(1 0 0 1 173.56 36.58)" class="st22 st26">ab</text>
<line class="st27" x1="203.6" y1="28.8" x2="209.2" y2="34.8"/>
<line class="st27" x1="209.4" y1="29" x2="203.4" y2="34.7"/>
<rect x="143.5" y="97.7" class="st28" width="9.7" height="9.7"/>
<g>
	<defs>
		<polygon id="SVGID_2_" points="0,109.2 800,562.3 0.2,562.3 		"/>
	</defs>
	<clipPath id="SVGID_3_">
		<use xlink:href="#SVGID_2_"  style="overflow:visible;"/>
	</clipPath>
	<g class="st29">
		<path class="st30" d="M800,562.5H0.2V15.6c0-8.5,6.9-15.4,15.4-15.4c0,0,0,0,0,0h768.9c8.5,0,15.4,6.9,15.4,15.4c0,0,0,0,0,0
			V562.5z"/>
		<path class="st1" d="M13.1,0.2h774.3c7.2,0,13.1,5.8,13.1,13.1v43.9l0,0H0l0,0V13.3C0,6.1,5.9,0.2,13.1,0.2z"/>
		<path class="st2" d="M231.7,48.3H120.6l8-28.2c1-3.2,3.5-5.3,6.3-5.3h82.6c2.8,0,5.3,2.1,6.3,5.3L231.7,48.3z"/>
		<path class="st3" d="M0,46.7h800.4v57.6H0V46.7z"/>
		<ellipse class="st4" cx="29.7" cy="24.2" rx="7.1" ry="6.6"/>
		<ellipse class="st4" cx="58.8" cy="24.2" rx="7.1" ry="6.6"/>
		<ellipse class="st4" cx="88.1" cy="24.2" rx="7.1" ry="6.6"/>
		<path class="st5" d="M140.7,63.5h543.6c7.9,0,14.3,6,14.3,13.5v0.2c0,7.4-6.4,13.5-14.3,13.5H140.7c-7.9,0-14.3-6-14.3-13.5v-0.2
			C126.4,69.5,132.8,63.5,140.7,63.5z"/>
		<path class="st6" d="M140.6,66h543.7c7.9,0,14.3,6,14.3,13.5v0.2c0,7.4-6.4,13.5-14.3,13.5H140.6c-7.9,0-14.3-6-14.3-13.5v-0.2
			C126.3,72,132.7,66,140.6,66z"/>
		<line class="st7" x1="763.8" y1="70.4" x2="779.6" y2="70.4"/>
		<line class="st7" x1="763.8" y1="77" x2="779.6" y2="77"/>
		<line class="st7" x1="763.8" y1="83.7" x2="779.6" y2="83.7"/>
		<path class="st3" d="M227.2,48.3H116.1l8-28.2c1-3.2,3.5-5.3,6.3-5.3H213c2.8,0,5.3,2.1,6.3,5.3L227.2,48.3z"/>
		<path class="st8" d="M228.9,45.7h571.5 M0,47.1h116.1"/>
		
			<linearGradient id="SVGID_4_" gradientUnits="userSpaceOnUse" x1="400.19" y1="559.76" x2="400.19" y2="539.46" gradientTransform="matrix(1 0 0 1 0 -430)">
			<stop  offset="0" style="stop-color:#FFFFFF;stop-opacity:0"/>
			<stop  offset="1" style="stop-color:#776BB2;stop-opacity:0.25"/>
		</linearGradient>
		<path class="st31" d="M0,109.4h800.4v20.3H0V109.4z"/>
		<path class="st10" d="M800.4,109.4H0"/>
		<path class="st11" d="M97,298.3h606.2c11.7,0,14.5,8.9,14.5,19.9v19.7c0,11-2.8,19.9-14.5,19.9H97c-11.7,0-14.5-8.9-14.5-19.9
			v-19.7C82.5,307.2,85.3,298.3,97,298.3z"/>
		<path class="st32" d="M96.4,296.8h606.2c11.7,0,14.5,8.9,14.5,19.9v19.7c0,11-2.8,19.9-14.5,19.9H96.4c-11.7,0-14.5-8.9-14.5-19.9
			v-19.7C81.9,305.7,84.7,296.8,96.4,296.8z"/>
		<path class="st11" d="M97,213.6h606.2c11.7,0,14.5,8.9,14.5,19.9v19.7c0,11-2.8,19.9-14.5,19.9H97c-11.7,0-14.5-8.9-14.5-19.9
			v-19.7C82.5,222.5,85.3,213.6,97,213.6z"/>
		<path class="st32" d="M96.4,211.5h606.2c11.7,0,14.5,8.9,14.5,19.9v19.7c0,11-2.8,19.9-14.5,19.9H96.4c-11.7,0-14.5-8.9-14.5-19.9
			v-19.7C81.9,220.4,84.7,211.5,96.4,211.5z"/>
		<ellipse class="st12" cx="122.7" cy="326.3" rx="17.1" ry="16.1"/>
		<path class="st11" d="M97,383.9h606.2c11.7,0,14.5,8.9,14.5,19.9v19.7c0,11-2.8,19.9-14.5,19.9H97c-11.7,0-14.5-8.9-14.5-19.9
			v-19.7C82.5,392.8,85.3,383.9,97,383.9z"/>
		<path class="st32" d="M97,382.4h606.2c11.7,0,14.5,8.9,14.5,19.9V422c0,11-2.8,19.9-14.5,19.9H97c-11.7,0-14.5-8.9-14.5-19.9
			v-19.6C82.5,391.4,85.3,382.4,97,382.4z"/>
		<ellipse class="st13" cx="121.7" cy="412" rx="17.1" ry="16.1"/>
		<path class="st11" d="M97,470.4h606.2c11.7,0,14.5,8.9,14.5,19.9V510c0,11-2.8,19.9-14.5,19.9H97c-11.7,0-14.5-8.9-14.5-19.9
			v-19.7C82.5,479.3,85.3,470.4,97,470.4z"/>
		<path class="st32" d="M97,469.2h606.2c11.7,0,14.5,8.9,14.5,19.9v19.7c0,11-2.8,19.9-14.5,19.9H97c-11.7,0-14.5-8.9-14.5-19.9
			v-19.7C82.5,478.1,85.3,469.2,97,469.2z"/>
		<ellipse class="st14" cx="121.7" cy="498.5" rx="17.1" ry="16.1"/>
		<polyline class="st33" points="21.9,73.7 16.2,80.3 21.9,86.6 		"/>
		<line class="st33" x1="31.2" y1="80.2" x2="16.2" y2="80.3"/>
		<polyline class="st33" points="56.2,86.6 61.9,79.9 56.2,73.7 		"/>
		<line class="st33" x1="47" y1="80.2" x2="61.9" y2="79.9"/>
		<path class="st16" d="M94.6,86.5c-1.1,0.8-2.5,1.3-3.8,1.3c-3.6,0-6.6-2.9-6.6-6.5c0-3.6,2.9-6.6,6.5-6.6c1.7,0,3.4,0.7,4.6,1.9"
			/>
		<polyline class="st16" points="90.8,77.4 96.3,77.9 96.3,72.6 		"/>
		<circle class="st17" cx="730.5" cy="75.5" r="15.4"/>
		<path class="st18" d="M730.5,75.1c-0.2,0-0.4-0.1-0.5-0.1l-6.1-2.6c-0.4-0.2-0.7-0.6-0.6-1c0-0.4,0.2-0.8,0.6-0.9l6.1-2.6
			c0.2-0.1,0.3-0.1,0.5-0.1c0.2,0,0.4,0,0.5,0.1l6.2,2.6c0.5,0.2,0.8,0.7,0.6,1.3c-0.1,0.3-0.3,0.5-0.6,0.6l-6.1,2.6
			C730.9,75.1,730.7,75.1,730.5,75.1L730.5,75.1z M730.5,68.6c-0.1,0-0.2,0-0.2,0l-6.2,2.6c-0.1,0-0.2,0.1-0.2,0.2
			c0,0.1,0.1,0.2,0.2,0.2l6.1,2.6c0.1,0,0.2,0.1,0.3,0.1c0.1,0,0.2,0,0.3-0.1l6.1-2.6c0.1,0,0.2-0.1,0.2-0.2c0-0.1-0.1-0.2-0.2-0.2
			l-6.2-2.6C730.7,68.6,730.6,68.6,730.5,68.6L730.5,68.6z"/>
		<path class="st18" d="M738.1,74.4c-0.1-0.2-0.3-0.3-0.5-0.2l-6.6,2.8c-0.2,0.1-0.5,0.1-0.8,0c-0.2-0.1-5.2-2.2-6.7-2.8
			c-0.2-0.1-0.4,0-0.5,0.2c-0.1,0.2,0,0.4,0.2,0.5l6.6,2.8c0.5,0.2,1.1,0.2,1.6,0c0.4-0.2,5.2-2.2,6.5-2.8
			C738.1,74.9,738.2,74.6,738.1,74.4L738.1,74.4z"/>
		<path class="st18" d="M730.9,79.6c-0.2,0.1-0.5,0.1-0.8,0l-6.7-2.8c-0.2-0.1-0.4,0-0.5,0.2c-0.1,0.2,0,0.4,0.2,0.5l6.6,2.8
			c0.5,0.2,1.1,0.2,1.6,0c0.4-0.1,5.2-2.2,6.5-2.8c0.2-0.1,0.3-0.3,0.2-0.5c0,0,0,0,0,0l0,0c-0.1-0.2-0.3-0.3-0.5-0.2L730.9,79.6
			L730.9,79.6z"/>
		<path class="st18" d="M730.9,82.2c-0.2,0.1-0.5,0.1-0.8,0c-0.2-0.1-5.2-2.2-6.7-2.8c-0.2-0.1-0.4,0-0.5,0.2c0,0,0,0,0,0
			c-0.1,0.2,0,0.4,0.2,0.5l6.6,2.8c0.5,0.2,1.1,0.2,1.6,0c0.4-0.2,5.2-2.2,6.5-2.8c0.2-0.1,0.3-0.3,0.2-0.5c0,0,0,0,0,0l0,0
			c-0.1-0.2-0.3-0.3-0.5-0.2L730.9,82.2L730.9,82.2z"/>
		<path class="st17" d="M116.1,157.2c-0.6,0-1.2-0.1-1.7-0.3c-0.6-0.3-10.1-4.3-18-7.6c-1.5-0.6-2.3-2.4-1.7-3.9
			c0.3-0.8,0.9-1.3,1.7-1.7l18.1-7.6c0.5-0.2,1-0.3,1.6-0.3c0.5,0,1.1,0.1,1.6,0.3c0.4,0.1,11.8,5,18,7.6c1.1,0.5,1.9,1.6,1.9,2.8
			c0,1.2-0.7,2.3-1.9,2.8c-5.1,2.2-17.1,7.3-17.9,7.6C117.2,157.1,116.6,157.2,116.1,157.2L116.1,157.2z M116.1,138.1
			c-0.2,0-0.5,0-0.7,0.1l-18.1,7.6c-0.3,0.1-0.5,0.4-0.5,0.7c0,0.3,0.2,0.6,0.5,0.7c11.1,4.7,17.4,7.4,17.9,7.6
			c0.3,0.1,0.6,0.2,0.9,0.2c0.3,0,0.6-0.1,0.8-0.2c0.8-0.3,12.8-5.4,17.9-7.6c0.3-0.1,0.5-0.4,0.5-0.7c0-0.3-0.2-0.6-0.5-0.7
			c-5.9-2.5-17.7-7.5-18-7.6C116.6,138.1,116.4,138.1,116.1,138.1L116.1,138.1z"/>
		<path class="st17" d="M138.2,155.2c-0.3-0.6-0.9-0.9-1.5-0.6c-4.1,1.7-18.7,7.9-19.5,8.2c-0.7,0.3-1.5,0.3-2.2,0l-19.5-8.2
			c-0.6-0.3-1.3-0.1-1.6,0.5s-0.1,1.3,0.5,1.6c0.1,0,0.1,0.1,0.2,0.1l19.3,8.1c1.5,0.6,3.2,0.6,4.6-0.1c1.1-0.4,15.1-6.4,19.1-8.1
			C138.2,156.5,138.5,155.8,138.2,155.2C138.2,155.2,138.2,155.2,138.2,155.2L138.2,155.2z"/>
		<path class="st17" d="M117.2,170.4c-0.7,0.3-1.5,0.3-2.2,0l-19.5-8.2c-0.6-0.3-1.3-0.1-1.6,0.5s-0.1,1.3,0.5,1.6
			c0.1,0,0.1,0.1,0.2,0.1l19.3,8.1c1.5,0.6,3.2,0.6,4.6-0.1c1.1-0.4,15.1-6.4,19.1-8.1c0.6-0.2,0.9-0.9,0.6-1.5c0,0,0,0,0,0l0,0
			c-0.3-0.6-0.9-0.9-1.5-0.6L117.2,170.4L117.2,170.4z"/>
		<path class="st17" d="M117.2,178c-0.7,0.3-1.5,0.3-2.2,0l-19.5-8.2c-0.6-0.3-1.3,0-1.5,0.6c-0.3,0.6,0,1.3,0.6,1.5l0,0
			c4,1.7,18.2,7.7,19.3,8.1c1.5,0.6,3.2,0.6,4.6-0.1c1.1-0.4,15.1-6.4,19.1-8.1c0.6-0.2,0.9-0.9,0.6-1.5c0,0,0,0,0,0l0,0
			c-0.3-0.6-0.9-0.9-1.5-0.6C132.6,171.5,118,177.7,117.2,178L117.2,178z"/>
		<polygon class="st19" points="123,225.7 128.4,236.6 140.4,238.3 131.7,246.8 133.8,258.8 123,253.1 112.3,258.8 114.3,246.8 
			105.6,238.3 117.7,236.6 		"/>
		<path class="st20" d="M179.6,237.6H177c0.1-4-3-7.4-7-7.5c-4-0.1-7.4,3-7.5,7c0,0.2,0,0.4,0,0.5h-2.6c-0.2-5.5,4.1-10,9.6-10.2
			c5.5-0.2,10,4.1,10.2,9.6C179.7,237.2,179.7,237.4,179.6,237.6 M182.9,241.9c0-1.4-1.2-2.6-2.6-2.6h-20.9c-1.4,0-2.6,1.2-2.6,2.6
			v0v12.4c0,1.4,1.2,2.6,2.6,2.6h20.9c1.4,0,2.6-1.2,2.6-2.6v0L182.9,241.9L182.9,241.9z M171.9,251.5c0,1.1-0.9,2-2,2h-0.3
			c-1.1,0-2-0.9-2-2v-5.3c0-1.1,0.9-2,2-2h0.3c1.1,0,2,0.9,2,2L171.9,251.5z"/>
		<path class="st21" d="M222.3,228.8h125.2c7.4,0,13.4,6,13.4,13.4l0,0c0,7.4-6,13.4-13.4,13.4H222.3c-7.4,0-13.4-6-13.4-13.4l0,0
			C208.9,234.8,214.9,228.8,222.3,228.8z"/>
		<path class="st11" d="M403.9,227.8h261.8c7.4,0,13.4,6,13.4,13.4l0,0c0,7.4-6,13.4-13.4,13.4H403.9c-7.4,0-13.4-6-13.4-13.4l0,0
			C390.5,233.8,396.5,227.8,403.9,227.8z"/>
		<path class="st11" d="M176.3,312.9h495.6c7.4,0,13.4,6,13.4,13.4v0c0,7.4-6,13.4-13.4,13.4H176.3c-7.4,0-13.4-6-13.4-13.4v0
			C162.9,318.9,168.9,312.9,176.3,312.9z"/>
		<path class="st11" d="M176.3,398.6h495.6c7.4,0,13.4,6,13.4,13.4v0c0,7.4-6,13.4-13.4,13.4H176.3c-7.4,0-13.4-6-13.4-13.4v0
			C162.9,404.6,168.9,398.6,176.3,398.6z"/>
		<path class="st11" d="M176.3,485.1h495.6c7.4,0,13.4,6,13.4,13.4v0c0,7.4-6,13.4-13.4,13.4H176.3c-7.4,0-13.4-6-13.4-13.4v0
			C162.9,491.1,168.9,485.1,176.3,485.1z"/>
		<path class="st11" d="M266.2,148.4h149.2c7.4,0,13.4,6,13.4,13.4l0,0c0,7.4-6,13.4-13.4,13.4H266.2c-7.4,0-13.4-6-13.4-13.4l0,0
			C252.8,154.4,258.8,148.4,266.2,148.4z"/>
		<path class="st4" d="M265.6,150.3h149.2c7.4,0,13.4,6,13.4,13.4l0,0c0,7.4-6,13.4-13.4,13.4H265.6c-7.4,0-13.4-6-13.4-13.4l0,0
			C252.3,156.3,258.2,150.3,265.6,150.3z"/>
		<text transform="matrix(1 0 0 1 153.2 169.65)" class="st22 st23">K</text>
		<text transform="matrix(1 0 0 1 166.57 169.65)" class="st22 st23">e</text>
		<text transform="matrix(1 0 0 1 178.18 169.65)" class="st22 st23">p</text>
		<text transform="matrix(1 0 0 1 190.77 169.65)" class="st22 st23">t</text>
		<text transform="matrix(1 0 0 1 198.17 169.65)" class="st22 st23">ab</text>
		
			<ellipse transform="matrix(0.2241 -0.9746 0.9746 0.2241 159.3538 522.7689)" class="st24" cx="408" cy="161.3" rx="5.4" ry="5.8"/>
		<path class="st24" d="M412.3,166.4l5.3,5.1"/>
		<path class="st25" d="M142.5,32c-0.2,0-0.4,0-0.6-0.1l-6.3-2.7c-0.4-0.2-0.7-0.6-0.6-1c0-0.4,0.2-0.8,0.6-1l6.4-2.6
			c0.2-0.1,0.4-0.1,0.6-0.1c0.2,0,0.4,0,0.6,0.1l6.4,2.7c0.4,0.2,0.7,0.6,0.6,1c0,0.4-0.2,0.8-0.6,1l-6.3,2.7
			C143,32,142.8,32.1,142.5,32L142.5,32z M142.5,25.3c-0.1,0-0.2,0-0.2,0l-6.4,2.7c-0.1,0-0.2,0.1-0.2,0.2c0,0.1,0.1,0.2,0.2,0.3
			c3.9,1.7,6.1,2.6,6.3,2.7c0.1,0,0.2,0.1,0.3,0.1c0.1,0,0.2,0,0.3-0.1l6.3-2.7c0.1,0,0.2-0.1,0.2-0.2c0-0.1-0.1-0.2-0.2-0.3
			l-6.4-2.7C142.7,25.3,142.6,25.3,142.5,25.3L142.5,25.3z"/>
		<path class="st25" d="M150.3,31.3c-0.1-0.2-0.3-0.3-0.5-0.2l-6.9,2.9c-0.3,0.1-0.5,0.1-0.8,0l-6.9-2.9c-0.2-0.1-0.4,0-0.5,0.2
			c-0.1,0.2,0,0.4,0.2,0.5l6.8,2.9c0.5,0.2,1.1,0.2,1.6,0l6.7-2.8C150.3,31.8,150.4,31.6,150.3,31.3
			C150.3,31.4,150.3,31.4,150.3,31.3L150.3,31.3z"/>
		<path class="st25" d="M142.9,36.7c-0.3,0.1-0.5,0.1-0.8,0l-6.9-2.9c-0.2-0.1-0.4,0-0.5,0.2c-0.1,0.2,0,0.4,0.2,0.5c0,0,0,0,0,0
			l6.8,2.9c0.5,0.2,1.1,0.2,1.6,0c0.4-0.2,5.3-2.2,6.7-2.8c0.2-0.1,0.3-0.3,0.2-0.5l0,0c-0.1-0.2-0.3-0.3-0.5-0.2L142.9,36.7
			L142.9,36.7z"/>
		<path class="st25" d="M142.9,39.3c-0.2,0.1-0.5,0.1-0.8,0l-6.9-2.9c-0.2-0.1-0.4,0-0.5,0.2c0,0,0,0,0,0c-0.1,0.2,0,0.4,0.2,0.5
			c0,0,0,0,0,0l6.8,2.9c0.5,0.2,1.1,0.2,1.6,0c0.4-0.2,5.3-2.2,6.7-2.8c0.2-0.1,0.3-0.3,0.2-0.5l0,0c-0.1-0.2-0.3-0.3-0.5-0.2
			c0,0,0,0,0,0L142.9,39.3L142.9,39.3z"/>
		<text transform="matrix(1 0 0 1 155.54 36.79)" class="st22 st26">K</text>
		<text transform="matrix(1 0 0 1 160.92 36.79)" class="st22 st26">e</text>
		<text transform="matrix(1 0 0 1 165.59 36.79)" class="st22 st26">p</text>
		<text transform="matrix(1 0 0 1 170.65 36.79)" class="st22 st26">t</text>
		<text transform="matrix(1 0 0 1 173.63 36.79)" class="st22 st26">ab</text>
		<line class="st27" x1="203.6" y1="29" x2="209.3" y2="35"/>
		<line class="st27" x1="209.5" y1="29.2" x2="203.5" y2="34.9"/>
		<path class="st34" d="M151,77.5h-0.7v-1.8c0-0.5-0.4-0.9-0.9-0.9h-1.8V74c-0.1-0.6-0.6-1.1-1.3-1c-0.6,0.1-1,0.5-1,1v0.7h-1.8
			c-0.5,0-0.9,0.4-0.9,0.9v1.8h0.7c0.7-0.1,1.3,0.4,1.4,1.1c0.1,0.7-0.4,1.3-1.1,1.4c-0.1,0-0.1,0-0.2,0h-0.7v1.8
			c0,0.5,0.4,0.9,0.9,0.9h1.8v-0.7c0.1-0.7,0.7-1.2,1.4-1.1c0.6,0.1,1.1,0.5,1.1,1.1v0.7h1.8c0.5,0,0.9-0.4,0.9-0.9v-1.8h0.7
			c0.6,0,1.1-0.5,1.1-1.2S151.6,77.5,151,77.5z"/>
		<rect x="143.5" y="97.7" class="st28" width="9.7" height="9.7"/>
	</g>
</g>
</svg>
