<?xml version="1.0" encoding="utf-8"?>
<svg version="1.1" xmlns="http://www.w3.org/2000/svg" xmlns:xlink="http://www.w3.org/1999/xlink" x="0px" y="0px"
	 viewBox="0 0 1000 702.6" style="enable-background:new 0 0 1000 702.6;" xml:space="preserve">
<style type="text/css">
	.st0{fill:#F9F4F7;}
	.st1{fill:#545253;}
	.st2{display:none;fill:#423D41;}
	.st3{display:none;fill:#F7F7F7;}
	.st4{display:none;fill:#332F32;}
	.st5{display:none;fill:#D1D1D1;}
	.st6{fill:#332F32;}
	.st7{fill:#F7F7F7;}
	.st8{fill:#FFFFFF;}
	.st9{fill:#C1B7C4;}
	.st10{fill:#F1F3F4;}
	.st11{fill:none;stroke:#686868;stroke-width:3.4701;stroke-linecap:round;stroke-miterlimit:10;}
	.st12{display:none;fill:#1CD384;}
	.st13{display:none;fill:#30292F;fill-opacity:0.6;}
	.st14{display:none;fill:#19DCE0;}
	.st15{fill:none;stroke:#332F32;stroke-width:3.3462;stroke-miterlimit:10;}
	.st16{opacity:0.6;fill:url(#SVGID_1_);fill-opacity:0.5;enable-background:new    ;}
	.st17{opacity:0.33;fill:none;stroke:#D5D5E0;stroke-width:1.974;stroke-miterlimit:10;enable-background:new    ;}
	.st18{opacity:0.2;fill:#7A7A9E;enable-background:new    ;}
	.st19{fill:#20F5A8;}
	.st20{fill:#36E1FA;}
	.st21{fill:#FF80BA;}
	.st22{fill:none;stroke:#9C9CAF;stroke-width:2.805;stroke-linecap:round;stroke-linejoin:round;stroke-miterlimit:10;}
	.st23{fill:none;stroke:#9C9CAF;stroke-width:2.4448;stroke-linecap:round;stroke-linejoin:round;stroke-miterlimit:10;}
	.st24{fill:#D4237A;}
	.st25{fill:#FFFFFF;stroke:#FFFFFF;stroke-width:0.6274;stroke-miterlimit:10;}
	.st26{fill:#FFD60D;}
	.st27{fill:#595855;}
	.st28{opacity:0.4;fill:#76768C;enable-background:new    ;}
	.st29{font-family:'SourceHanSansCN-Regular-GBpc-EUC-H';}
	.st30{font-size:26.1821px;}
	.st31{fill:none;stroke:#D4237A;stroke-width:2.5096;stroke-linecap:round;stroke-linejoin:round;stroke-miterlimit:10;}
	.st32{fill:#D4237A;stroke:#D4237A;stroke-width:0.4999;stroke-miterlimit:10;}
	.st33{font-size:10.5219px;}
	.st34{fill:none;stroke:#545253;stroke-width:1.1655;stroke-miterlimit:10;}
</style>
<g>
	<g>
		<g>
			<path class="st0" d="M999.5,702.6H0.3V19.3C0.3,8.6,8.9,0,19.5,0h960.7c10.7,0,19.3,8.6,19.3,19.3V702.6z"/>
		</g>
		<path class="st1" d="M1000,58.5H0V13.4C0,6,7.3,0,16.3,0h967.4c9,0,16.3,6,16.3,13.4V58.5z"/>
		<path class="st2" d="M625.2,46.8h-32.7c-2,0-3.8-1.3-4.3-3.2l-4.3-16c-0.7-2.7,1.4-5.3,4.3-5.3h32.7c2,0,3.8,1.3,4.3,3.2l4.3,16
			C630.2,44.1,628.1,46.8,625.2,46.8z"/>
		<path class="st3" d="M619.2,43.2h-32.7c-2,0-3.8-1.3-4.3-3.2l-4.3-16c-0.7-2.7,1.4-5.3,4.3-5.3H615c2,0,3.8,1.3,4.3,3.2l4.3,16
			C624.3,40.6,622.1,43.2,619.2,43.2z"/>
		<path class="st4" d="M556.5,60.1H417.6l9.9-35.2c1.3-4,4.4-6.6,7.9-6.6h103.2c3.5,0,6.6,2.6,7.9,6.6L556.5,60.1z"/>
		<path class="st5" d="M550.9,60.1H412l9.9-35.2c1.3-4,4.4-6.6,7.9-6.6H533c3.5,0,6.6,2.6,7.9,6.6L550.9,60.1z"/>
		<path class="st4" d="M423,60.1H284.1l9.9-35.2c1.3-4,4.4-6.6,7.9-6.6h103.2c3.5,0,6.6,2.6,7.9,6.6L423,60.1z"/>
		<path class="st5" d="M417.4,60.1H278.5l9.9-35.2c1.3-4,4.4-6.6,7.9-6.6h103.2c3.5,0,6.6,2.6,7.9,6.6L417.4,60.1z"/>
		<path class="st6" d="M289.5,60.1H150.7l9.9-35.2c1.3-4,4.4-6.6,7.9-6.6h103.2c3.5,0,6.6,2.6,7.9,6.6L289.5,60.1z"/>
		<path class="st7" d="M0,58h1000v72H0V58z"/>
		<ellipse class="st8" cx="37.1" cy="30" rx="8.8" ry="8.3"/>
		<ellipse class="st8" cx="73.5" cy="30" rx="8.8" ry="8.3"/>
		<ellipse class="st8" cx="110.1" cy="30" rx="8.8" ry="8.3"/>
		<path class="st9" d="M175.8,79H855c9.9,0,17.9,7.5,17.9,16.8v0.3c0,9.3-8,16.8-17.9,16.8H175.8c-9.9,0-17.9-7.5-17.9-16.8v-0.3
			C157.9,86.5,165.9,79,175.8,79z"/>
		<path class="st10" d="M175.7,82.2H855c9.9,0,17.9,7.5,17.9,16.8v0.3c0,9.3-8,16.8-17.9,16.8H175.7c-9.9,0-17.9-7.5-17.9-16.8V99
			C157.8,89.7,165.8,82.2,175.7,82.2z"/>
		<g>
			<line class="st11" x1="954.4" y1="87.7" x2="974.1" y2="87.7"/>
			<line class="st11" x1="954.4" y1="96" x2="974.1" y2="96"/>
			<line class="st11" x1="954.4" y1="104.3" x2="974.1" y2="104.3"/>
		</g>
		<path class="st7" d="M283.9,60.1H145.1l9.9-35.2c1.3-4,4.4-6.6,7.9-6.6h103.2c3.5,0,6.6,2.6,7.9,6.6L283.9,60.1z"/>
		<ellipse class="st12" cx="310.6" cy="39.4" rx="8.7" ry="8.2"/>
		<path class="st13" d="M335.5,35.6h55.1c2.1,0,3.8,1.6,3.8,3.5v0.6c0,2-1.7,3.5-3.8,3.5h-55.1c-2.1,0-3.8-1.6-3.8-3.5v-0.6
			C331.8,37.1,333.4,35.6,335.5,35.6z"/>
		<ellipse class="st14" cx="448.3" cy="39.4" rx="8.7" ry="8.2"/>
		<path class="st13" d="M473.3,35.6h55.1c2.1,0,3.8,1.6,3.8,3.5v0.6c0,2-1.7,3.5-3.8,3.5h-55.1c-2.1,0-3.8-1.6-3.8-3.5v-0.6
			C469.6,37.1,471.3,35.6,473.3,35.6z"/>
		<path class="st15" d="M286,56.8h714 M0,58.5h145.1"/>
		<g>
			
				<linearGradient id="SVGID_1_" gradientUnits="userSpaceOnUse" x1="500" y1="344.1361" x2="500" y2="369.4969" gradientTransform="matrix(1 0 0 -1 0 506)">
				<stop  offset="0" style="stop-color:#FFFFFF;stop-opacity:0"/>
				<stop  offset="1" style="stop-color:#776BB2;stop-opacity:0.25"/>
			</linearGradient>
			<path class="st16" d="M0,136.5h1000v25.4H0V136.5z"/>
			<path class="st17" d="M0,136.5h1000"/>
		</g>
		<path class="st18" d="M121.2,372.4h757.4c14.6,0,18.1,11.1,18.1,24.9v24.6c0,13.7-3.5,24.9-18.1,24.9H121.2
			c-14.6,0-18.1-11.1-18.1-24.9v-24.6C103.1,383.5,106.6,372.4,121.2,372.4z"/>
		<path class="st8" d="M120.5,370.5h757.4c14.6,0,18.1,11.1,18.1,24.9V420c0,13.7-3.5,24.9-18.1,24.9H120.5
			c-14.6,0-18.1-11.1-18.1-24.9v-24.6C102.4,381.7,105.9,370.5,120.5,370.5z"/>
		<path class="st18" d="M121.2,266.6h757.4c14.6,0,18.1,11.1,18.1,24.9V316c0,13.7-3.5,24.9-18.1,24.9H121.2
			c-14.6,0-18.1-11.1-18.1-24.9v-24.6C103.1,277.7,106.6,266.6,121.2,266.6z"/>
		<path class="st8" d="M120.5,264h757.4c14.6,0,18.1,11.1,18.1,24.9v24.6c0,13.7-3.5,24.9-18.1,24.9H120.5
			c-14.6,0-18.1-11.1-18.1-24.9v-24.6C102.4,275.1,105.9,264,120.5,264z"/>
		<ellipse class="st19" cx="153.4" cy="407.5" rx="21.4" ry="20.1"/>
		<path class="st18" d="M121.2,479.4h757.4c14.6,0,18.1,11.1,18.1,24.9v24.6c0,13.7-3.5,24.9-18.1,24.9H121.2
			c-14.6,0-18.1-11.1-18.1-24.9v-24.6C103.1,490.5,106.6,479.4,121.2,479.4z"/>
		<path class="st8" d="M121.2,477.6h757.4c14.6,0,18.1,11.1,18.1,24.9V527c0,13.7-3.5,24.9-18.1,24.9H121.2
			c-14.6,0-18.1-11.1-18.1-24.9v-24.6C103.1,488.7,106.6,477.6,121.2,477.6z"/>
		<ellipse class="st20" cx="152.1" cy="514.5" rx="21.4" ry="20.1"/>
		<path class="st18" d="M121.2,587.5h757.4c14.6,0,18.1,11.1,18.1,24.9V637c0,13.7-3.5,24.9-18.1,24.9H121.2
			c-14.6,0-18.1-11.1-18.1-24.9v-24.6C103.1,598.6,106.6,587.5,121.2,587.5z"/>
		<path class="st8" d="M121.2,585.9h757.4c14.6,0,18.1,11.1,18.1,24.9v24.6c0,13.7-3.5,24.9-18.1,24.9H121.2
			c-14.6,0-18.1-11.1-18.1-24.9v-24.6C103.1,597.1,106.6,585.9,121.2,585.9z"/>
		<ellipse class="st21" cx="152.1" cy="622.6" rx="21.4" ry="20.1"/>
		<g>
			<polyline class="st22" points="27.4,91.8 20.2,100.1 27.4,108 			"/>
			<line class="st22" x1="38.9" y1="99.9" x2="20.2" y2="100.1"/>
		</g>
		<g>
			<polyline class="st22" points="70.2,108 77.4,99.6 70.2,91.8 			"/>
			<line class="st22" x1="58.7" y1="99.9" x2="77.4" y2="99.6"/>
		</g>
		<g>
			<path class="st23" d="M118.2,107.8c-1.3,1-3,1.6-4.8,1.6c-4.5,0-8.2-3.7-8.2-8.2s3.7-8.2,8.2-8.2c2.3,0,4.3,0.9,5.8,2.4"/>
			<polyline class="st23" points="113.5,96.5 120.3,97.1 120.3,90.4 			"/>
		</g>
		<circle class="st24" cx="912.8" cy="94" r="19.3"/>
		<g>
			<path class="st25" d="M912.8,93.6c-0.2,0-0.5,0-0.7-0.1c-0.3-0.1-4.3-1.8-7.7-3.2c-0.5-0.2-0.8-0.7-0.8-1.2s0.3-1,0.8-1.2
				l7.7-3.3c0.2-0.1,0.5-0.1,0.7-0.1s0.5,0,0.7,0.1s5,2.1,7.7,3.3c0.5,0.2,0.8,0.7,0.8,1.2s-0.3,1-0.8,1.2c-2.2,0.9-7.3,3.1-7.7,3.2
				C913.2,93.6,913,93.6,912.8,93.6L912.8,93.6z M912.8,85.4c-0.2,0-0.3,0-0.3,0l-7.7,3.3c-0.2,0.1-0.2,0.2-0.2,0.3
				c0,0.1,0,0.2,0.2,0.3c4.7,2,7.4,3.2,7.6,3.2c0.1,0.1,0.3,0.1,0.4,0.1s0.2,0,0.3-0.1c0.3-0.1,5.5-2.3,7.6-3.2
				c0.2-0.1,0.2-0.2,0.2-0.3c0-0.1,0-0.2-0.2-0.3c-2.5-1.1-7.5-3.2-7.7-3.3C913,85.5,912.9,85.4,912.8,85.4L912.8,85.4z"/>
			<path class="st25" d="M922.2,92.8c-0.1-0.2-0.4-0.4-0.7-0.3c-1.8,0.7-8,3.4-8.3,3.5s-0.6,0.1-0.9,0c-0.3-0.1-6.5-2.8-8.3-3.5
				c-0.3-0.1-0.5,0-0.7,0.3c-0.1,0.3,0,0.5,0.3,0.7c1.7,0.7,7.8,3.3,8.2,3.5c0.6,0.3,1.2,0.3,2,0c0.5-0.2,6.4-2.7,8.2-3.4
				C922.2,93.3,922.3,93,922.2,92.8L922.2,92.8z"/>
			<path class="st25" d="M913.2,99.2c-0.3,0.1-0.6,0.1-0.9,0c-0.3-0.1-6.5-2.8-8.3-3.5c-0.3-0.1-0.5,0-0.7,0.3
				c-0.1,0.3,0,0.5,0.3,0.7c1.7,0.7,7.8,3.3,8.2,3.5c0.6,0.3,1.2,0.3,2,0c0.5-0.2,6.4-2.7,8.2-3.4c0.3-0.1,0.4-0.4,0.3-0.7l0,0
				c-0.1-0.2-0.4-0.4-0.7-0.3C919.8,96.5,913.6,99.1,913.2,99.2L913.2,99.2z"/>
			<path class="st25" d="M913.2,102.5c-0.3,0.1-0.6,0.1-0.9,0c-0.3-0.1-6.5-2.8-8.3-3.5c-0.3-0.1-0.5,0-0.7,0.3
				c-0.1,0.3,0,0.5,0.3,0.7c1.7,0.7,7.8,3.3,8.2,3.5c0.6,0.3,1.2,0.3,2,0c0.5-0.2,6.4-2.7,8.2-3.4c0.3-0.1,0.4-0.4,0.3-0.7l0,0
				c-0.1-0.2-0.4-0.4-0.7-0.3C919.8,99.7,913.6,102.3,913.2,102.5L913.2,102.5z"/>
		</g>
		<g>
			<g>
				<path class="st24" d="M145.1,196.2c-0.7,0-1.4-0.1-2.1-0.4c-0.8-0.3-12.6-5.3-22.4-9.5c-1.4-0.6-2.3-1.9-2.3-3.5
					c0-1.5,0.9-2.9,2.3-3.5l22.6-9.6c0.7-0.3,1.5-0.3,2-0.3s1.3,0,2,0.3c0.4,0.2,14.7,6.2,22.5,9.6c1.4,0.6,2.3,1.9,2.3,3.5
					c0,1.5-0.9,2.9-2.3,3.5c-6.4,2.7-21.4,9.1-22.4,9.5C146.5,196,145.8,196.2,145.1,196.2L145.1,196.2z M145.1,172.2
					c-0.5,0-0.8,0.1-0.8,0.1l-22.6,9.6c-0.5,0.2-0.6,0.7-0.6,0.9s0,0.7,0.6,0.9c13.8,5.9,21.8,9.2,22.4,9.5c0.4,0.2,0.8,0.2,1.1,0.2
					s0.6-0.1,1-0.2c1-0.4,16-6.8,22.4-9.5c0.5-0.2,0.6-0.7,0.6-0.9s0-0.7-0.6-0.9c-7.4-3.1-22-9.4-22.5-9.6
					C145.9,172.3,145.6,172.2,145.1,172.2L145.1,172.2z"/>
				<path class="st24" d="M172.7,193.7c-0.3-0.7-1.2-1.1-1.9-0.8c-5.1,2.2-23.3,9.9-24.3,10.3c-0.9,0.4-1.8,0.4-2.8,0
					c-0.9-0.4-19.2-8.1-24.3-10.3c-0.8-0.3-1.6,0-1.9,0.8s0,1.6,0.8,1.9c5.1,2.1,22.7,9.6,24.1,10.2c1.8,0.8,3.5,0.8,5.8-0.1
					c1.4-0.5,18.8-7.9,23.9-10.1C172.7,195.3,173,194.4,172.7,193.7L172.7,193.7z"/>
				<path class="st24" d="M146.5,212.6c-0.9,0.4-1.8,0.4-2.8,0c-0.9-0.4-19.2-8.1-24.3-10.3c-0.8-0.3-1.6,0-1.9,0.8s0,1.6,0.8,1.9
					c5.1,2.1,22.7,9.6,24.1,10.2c1.8,0.8,3.5,0.8,5.8-0.1c1.4-0.5,18.8-7.9,23.9-10.1c0.8-0.3,1.1-1.2,0.8-1.9l0,0
					c-0.3-0.7-1.2-1.1-1.9-0.8C165.6,204.5,147.4,212.2,146.5,212.6L146.5,212.6z"/>
				<path class="st24" d="M146.4,222.1c-0.9,0.4-1.8,0.4-2.8,0c-0.9-0.4-19.2-8.1-24.3-10.3c-0.8-0.3-1.6,0-1.9,0.8s0,1.6,0.8,1.9
					c5.1,2.1,22.7,9.6,24.1,10.2c1.8,0.8,3.5,0.8,5.8-0.1c1.4-0.5,18.8-7.9,23.9-10.1c0.8-0.3,1.1-1.2,0.8-1.9l0,0
					c-0.3-0.7-1.2-1.1-1.9-0.8C165.6,214,147.4,221.7,146.4,222.1L146.4,222.1z"/>
			</g>
		</g>
		<polygon class="st26" points="153.7,281.7 160.4,295.3 175.5,297.5 164.6,308.1 167.2,323 153.7,316 140.3,323 142.9,308.1 
			132,297.5 147,295.3 		"/>
		<path class="st27" d="M224.5,296.6h-3.3c0-5.2-4-9.2-9.1-9.2s-9.1,4-9.1,9.2h-3.3c0-6.3,5.5-12.5,12.3-12.5
			C218.9,284.1,224.5,290.3,224.5,296.6 M228.6,301.9c0-1.8-1.5-3.3-3.3-3.3h-26.1c-1.8,0-3.3,1.5-3.3,3.3v15.4
			c0,1.8,1.5,3.3,3.3,3.3h26.1c1.8,0,3.3-1.5,3.3-3.3V301.9L228.6,301.9L228.6,301.9z M214.9,314c0,1.3-1.1,2.4-2.4,2.4h-0.4
			c-1.3,0-2.4-1.1-2.4-2.4v-6.6c0-1.3,1.1-2.4,2.4-2.4h0.4c1.3,0,2.4,1.1,2.4,2.4V314z"/>
		<path class="st28" d="M434.1,319.1H277.8c-9.2,0-16.7-7.5-16.7-16.7l0,0c0-9.2,7.5-16.7,16.7-16.7h156.4c9.2,0,16.7,7.5,16.7,16.7
			l0,0C450.9,311.6,443.4,319.1,434.1,319.1z"/>
		<path class="st18" d="M831.8,317.9H504.7c-9.2,0-16.7-7.5-16.7-16.7l0,0c0-9.2,7.5-16.7,16.7-16.7h327.1c9.2,0,16.7,7.5,16.7,16.7
			l0,0C848.5,310.4,841.1,317.9,831.8,317.9z"/>
		<path class="st18" d="M839.5,424.2H220.2c-9.2,0-16.7-7.5-16.7-16.7l0,0c0-9.2,7.5-16.7,16.7-16.7h619.2c9.2,0,16.7,7.5,16.7,16.7
			l0,0C856.2,416.7,848.7,424.2,839.5,424.2z"/>
		<path class="st18" d="M839.5,531.2H220.2c-9.2,0-16.7-7.5-16.7-16.7l0,0c0-9.2,7.5-16.7,16.7-16.7h619.2c9.2,0,16.7,7.5,16.7,16.7
			l0,0C856.2,523.7,848.7,531.2,839.5,531.2z"/>
		<path class="st18" d="M839.5,639.3H220.2c-9.2,0-16.7-7.5-16.7-16.7l0,0c0-9.2,7.5-16.7,16.7-16.7h619.2c9.2,0,16.7,7.5,16.7,16.7
			l0,0C856.2,631.8,848.7,639.3,839.5,639.3z"/>
		<path class="st18" d="M518.9,218.6H332.6c-9.2,0-16.7-7.5-16.7-16.7l0,0c0-9.2,7.5-16.7,16.7-16.7H519c9.2,0,16.7,7.5,16.7,16.7
			l0,0C535.7,211.1,528.2,218.6,518.9,218.6z"/>
		<path class="st8" d="M518.3,221H331.9c-9.2,0-16.7-7.5-16.7-16.7l0,0c0-9.2,7.5-16.7,16.7-16.7h186.4c9.2,0,16.7,7.5,16.7,16.7
			l0,0C535,213.5,527.5,221,518.3,221z"/>
		<text transform="matrix(1 0 0 1 191.4101 211.7054)" class="st29 st30">Keptab</text>
		<g>
			<ellipse transform="matrix(0.2241 -0.9746 0.9746 0.2241 199.4016 652.957)" class="st31" cx="509.8" cy="201.3" rx="6.7" ry="7.2"/>
			<path class="st31" d="M515.1,207.6l6.6,6.4"/>
		</g>
		<g>
			<g>
				<path class="st32" d="M178.1,39.8c-0.2,0-0.5,0-0.7-0.1c-0.3-0.1-4.4-1.9-7.9-3.3c-0.5-0.2-0.8-0.7-0.8-1.2s0.3-1,0.8-1.2l8-3.4
					c0.2-0.1,0.5-0.1,0.7-0.1s0.5,0,0.7,0.1s5.2,2.2,7.9,3.4c0.5,0.2,0.8,0.7,0.8,1.2s-0.3,1-0.8,1.2c-2.3,1-7.5,3.2-7.9,3.3
					C178.6,39.7,178.3,39.8,178.1,39.8L178.1,39.8z M178.1,31.4c-0.2,0-0.3,0-0.3,0l-8,3.4c-0.2,0.1-0.2,0.2-0.2,0.3s0,0.2,0.2,0.3
					c4.9,2.1,7.7,3.2,7.9,3.3c0.1,0.1,0.3,0.1,0.4,0.1c0.1,0,0.2,0,0.4-0.1c0.3-0.1,5.6-2.4,7.9-3.3c0.2-0.1,0.2-0.2,0.2-0.3
					s0-0.2-0.2-0.3c-2.6-1.1-7.8-3.3-7.9-3.4C178.3,31.4,178.2,31.4,178.1,31.4L178.1,31.4z"/>
				<path class="st32" d="M187.8,38.9c-0.1-0.3-0.4-0.4-0.7-0.3c-1.8,0.8-8.2,3.5-8.6,3.6c-0.3,0.1-0.6,0.1-1,0
					c-0.3-0.1-6.7-2.8-8.6-3.6c-0.3-0.1-0.6,0-0.7,0.3c-0.1,0.3,0,0.6,0.3,0.7c1.8,0.8,8,3.4,8.5,3.6c0.6,0.3,1.2,0.3,2,0
					c0.5-0.2,6.6-2.8,8.4-3.5C187.8,39.5,187.9,39.2,187.8,38.9L187.8,38.9z"/>
				<path class="st32" d="M178.5,45.6c-0.3,0.1-0.6,0.1-1,0c-0.3-0.1-6.7-2.8-8.6-3.6c-0.3-0.1-0.6,0-0.7,0.3
					c-0.1,0.3,0,0.6,0.3,0.7c1.8,0.8,8,3.4,8.5,3.6c0.6,0.3,1.2,0.3,2,0c0.5-0.2,6.6-2.8,8.4-3.5c0.3-0.1,0.4-0.4,0.3-0.7l0,0
					c-0.1-0.3-0.4-0.4-0.7-0.3C185.3,42.7,178.9,45.4,178.5,45.6L178.5,45.6z"/>
				<path class="st32" d="M178.5,48.9c-0.3,0.1-0.6,0.1-1,0c-0.3-0.1-6.7-2.8-8.6-3.6c-0.3-0.1-0.6,0-0.7,0.3
					c-0.1,0.3,0,0.6,0.3,0.7c1.8,0.8,8,3.4,8.5,3.6c0.6,0.3,1.2,0.3,2,0c0.5-0.2,6.6-2.8,8.4-3.5c0.3-0.1,0.4-0.4,0.3-0.7l0,0
					c-0.1-0.3-0.4-0.4-0.7-0.3C185.3,46.1,178.9,48.8,178.5,48.9L178.5,48.9z"/>
			</g>
		</g>
		<text transform="matrix(1 0 0 1 194.3329 45.7103)" class="st29 st33">Keptab</text>
		<g>
			<line class="st34" x1="254.4" y1="36" x2="261.5" y2="43.5"/>
			<line class="st34" x1="261.8" y1="36.2" x2="254.2" y2="43.3"/>
		</g>
	</g>
</g>
<path class="st28" d="M210.8,121.3"/>
</svg>
