<?xml version="1.0"?>
<svg height="128" viewBox="0 0 1024 1024" width="128" xmlns="http://www.w3.org/2000/svg">
    <path d="M512.542 493.76c-10.475 0-21.311-2.168-32.508-6.502-11.92-4.696-193.964-81.992-344.584-145.563-21.672-9.392-35.398-29.619-35.398-53.458 0-23.478 13.726-44.066 35.398-53.096L482.562 88.494c10.114-4.335 23.117-4.696 29.98-4.696 6.863 0 20.227 0.723 29.98 4.696 6.862 2.89 225.388 95.718 346.028 146.647 21.672 9.39 35.398 29.618 35.398 53.457 0 23.478-13.365 44.067-35.398 53.097-98.246 41.537-328.691 139.422-343.861 145.563-10.836 4.334-21.672 6.501-32.147 6.501z m0.361-367.34c-7.224 0-11.92 1.083-13.003 1.445L152.426 274.51c-7.946 3.251-9.03 10.475-9.03 13.365 0 2.89 0.723 10.113 8.669 13.364 212.385 90.3 334.47 141.59 343.5 145.202 6.14 2.529 11.559 3.612 16.616 3.612 5.056 0 9.752-1.083 15.531-3.612 15.17-6.14 245.254-104.025 343.5-145.563 7.947-3.25 9.03-10.475 9.03-13.364 0-2.89-0.722-10.114-9.03-13.365-113.416-48.04-338.443-143.757-346.028-146.647-0.723 0-5.418-1.083-12.281-1.083z" fill="#d4237a"></path>
    <path d="M936.229 455.472c-5.057-11.197-18.06-16.615-29.258-11.92-78.741 33.231-358.31 151.343-373.48 157.484-14.448 5.779-27.09 6.14-42.621 0-13.365-5.418-294.016-123.892-373.48-157.483-11.559-4.696-24.562 0.36-29.619 11.92-4.695 11.558 0.362 24.56 11.92 29.618 77.658 32.869 348.557 147.008 369.507 156.038 27.09 11.558 54.18 12.28 88.494-1.084 21.31-8.307 289.32-121.724 366.617-154.593 11.558-4.696 16.976-18.06 11.92-29.618v-0.362z" fill="#d4237a"></path>
    <path d="M533.491 746.238c-14.448 5.779-27.09 6.14-42.621 0-13.365-5.418-294.016-123.892-373.48-157.483-11.559-4.696-24.562 0.361-29.619 11.92-4.695 11.558 0.362 24.561 11.92 29.618C177.349 663.162 448.248 777.3 469.198 786.33c27.09 11.558 54.18 12.28 88.494-1.084 21.31-8.307 289.32-121.724 366.617-154.593 11.558-4.696 16.976-18.06 11.92-29.618l-0.362-0.362c-5.056-11.197-18.06-16.615-29.257-11.92-78.741 33.231-358.31 151.343-373.119 157.484z" fill="#d4237a"></path>
    <path d="M533.13 891.801c-14.448 5.78-27.09 6.14-42.621 0-13.365-5.418-294.017-123.891-373.48-157.483-11.559-4.695-24.562 0.361-29.619 11.92-4.695 11.558 0.361 24.561 11.92 29.618 77.658 32.87 348.557 147.008 369.507 156.038 27.09 11.559 54.18 12.281 88.494-1.083 21.31-8.308 289.32-121.725 366.617-154.594 11.558-4.695 16.976-18.06 11.92-29.618l-0.362-0.361c-5.057-11.197-18.06-16.615-29.257-11.92-78.741 33.23-357.948 151.343-373.119 157.483z" fill="#d4237a"></path>
</svg>